<mxfile host="app.diagrams.net" agent="Mozilla/5.0 (Windows NT 10.0; Win64; x64) AppleWebKit/537.36 (KHTML, like Gecko) Chrome/127.0.0.0 Safari/537.36 OPR/113.0.0.0" version="24.7.17">
  <diagram name="Page-1" id="dKGTmBD2gazZT_joY7rI">
    <mxGraphModel dx="696" dy="350" grid="1" gridSize="10" guides="1" tooltips="1" connect="1" arrows="1" fold="1" page="1" pageScale="1" pageWidth="850" pageHeight="1100" math="0" shadow="0">
      <root>
        <mxCell id="0" />
        <mxCell id="1" parent="0" />
        <mxCell id="eRmZoqG796YqX_fro0qS-3" value="" style="rounded=0;whiteSpace=wrap;html=1;fillColor=#F45B69;strokeColor=#028090;labelBackgroundColor=none;fontColor=#E4FDE1;" parent="1" vertex="1">
          <mxGeometry x="440" y="120" width="160" height="77.5" as="geometry" />
        </mxCell>
        <mxCell id="eRmZoqG796YqX_fro0qS-7" value="" style="endArrow=classic;html=1;rounded=0;entryX=0.145;entryY=0.145;entryDx=0;entryDy=0;entryPerimeter=0;labelBackgroundColor=none;strokeColor=#028090;fontColor=default;" parent="1" edge="1">
          <mxGeometry width="50" height="50" relative="1" as="geometry">
            <mxPoint x="320.14" y="159" as="sourcePoint" />
            <mxPoint x="439.9967929750286" y="157.75" as="targetPoint" />
          </mxGeometry>
        </mxCell>
        <mxCell id="eRmZoqG796YqX_fro0qS-11" value="" style="endArrow=classic;html=1;rounded=0;exitX=1;exitY=0.5;exitDx=0;exitDy=0;labelBackgroundColor=none;strokeColor=#028090;fontColor=default;" parent="1" edge="1">
          <mxGeometry width="50" height="50" relative="1" as="geometry">
            <mxPoint x="600" y="158.75" as="sourcePoint" />
            <mxPoint x="720" y="159" as="targetPoint" />
          </mxGeometry>
        </mxCell>
        <mxCell id="eRmZoqG796YqX_fro0qS-18" value="&lt;span style=&quot;font-size: 20px;&quot;&gt;Z&lt;/span&gt;" style="text;html=1;align=center;verticalAlign=middle;whiteSpace=wrap;rounded=0;labelBackgroundColor=none;fillColor=none;fontColor=#000000;" parent="1" vertex="1">
          <mxGeometry x="640" y="120" width="60" height="30" as="geometry" />
        </mxCell>
        <mxCell id="PqTadCYmbRU7wQy1IgIU-1" value="&lt;font style=&quot;font-size: 20px;&quot;&gt;X&lt;/font&gt;" style="text;html=1;align=center;verticalAlign=middle;whiteSpace=wrap;rounded=0;labelBackgroundColor=none;fillColor=none;fontColor=#000000;" parent="1" vertex="1">
          <mxGeometry x="330" y="120" width="60" height="30" as="geometry" />
        </mxCell>
        <mxCell id="ZBx5i0C8K3u_U0Z0J68g-1" value="&lt;font style=&quot;font-size: 25px;&quot;&gt;A&lt;/font&gt;" style="text;html=1;align=center;verticalAlign=middle;whiteSpace=wrap;rounded=0;" vertex="1" parent="1">
          <mxGeometry x="490" y="130" width="60" height="30" as="geometry" />
        </mxCell>
        <mxCell id="ZBx5i0C8K3u_U0Z0J68g-2" value="&lt;font style=&quot;font-size: 25px;&quot;&gt;1 + A&lt;/font&gt;" style="text;html=1;align=center;verticalAlign=middle;whiteSpace=wrap;rounded=0;" vertex="1" parent="1">
          <mxGeometry x="490" y="160" width="60" height="30" as="geometry" />
        </mxCell>
        <mxCell id="ZBx5i0C8K3u_U0Z0J68g-3" value="" style="endArrow=none;html=1;rounded=0;strokeWidth=3;" edge="1" parent="1">
          <mxGeometry width="50" height="50" relative="1" as="geometry">
            <mxPoint x="462.5" y="158.51" as="sourcePoint" />
            <mxPoint x="577.5" y="158.51" as="targetPoint" />
          </mxGeometry>
        </mxCell>
      </root>
    </mxGraphModel>
  </diagram>
</mxfile>
